<?xml version="1.0" standalone="no"?>
<!DOCTYPE svg PUBLIC "-//W3C//DTD SVG 20010904//EN"
 "http://www.w3.org/TR/2001/REC-SVG-20010904/DTD/svg10.dtd">
<svg version="1.0" xmlns="http://www.w3.org/2000/svg"
 width="175.000000pt" height="175.000000pt" viewBox="0 0 175.000000 175.000000"
 preserveAspectRatio="xMidYMid meet">
<metadata>
Created by potrace 1.11, written by Peter Selinger 2001-2013
</metadata>
<g transform="translate(0.000000,175.000000) scale(0.100000,-0.100000)"
fill="#000000" stroke="none">
<path d="M338 1670 c-5 -76 -4 -88 14 -114 16 -23 18 -28 5 -23 -13 5 -15 0
-10 -27 12 -75 -63 -140 -136 -117 -22 6 -31 7 -24 0 7 -7 -22 -41 -88 -106
l-99 -96 0 -594 0 -593 875 0 875 0 0 875 0 875 -160 0 -159 0 -3 -92 c-3 -87
-4 -93 -28 -105 -35 -18 -977 -19 -1015 -1 -30 13 -34 28 -37 128 l-3 75 -7
-85z m1287 -131 c18 -34 19 -63 4 -92 -30 -59 -108 -76 -151 -34 -13 12 -16
16 -7 9 9 -7 32 -15 51 -19 29 -4 41 0 67 23 40 36 44 81 12 124 -15 21 -17
28 -6 24 9 -4 22 -19 30 -35z m-1040 -139 c12 0 15 15 15 66 0 41 4 63 10 59
6 -3 10 -33 10 -66 l0 -59 60 0 60 0 2 68 1 67 6 -65 c5 -51 10 -66 24 -68 15
-3 17 6 19 65 l2 68 3 -67 4 -68 44 0 45 0 0 59 c0 33 5 63 10 66 6 4 10 -18
10 -59 l0 -66 75 0 75 0 0 59 c0 33 5 63 10 66 6 4 10 -18 10 -60 0 -44 4 -64
11 -60 6 4 9 31 8 61 -2 29 0 57 4 61 4 3 7 -24 7 -60 0 -53 3 -67 15 -67 12
0 15 15 17 68 l2 67 3 -60 c6 -86 23 -95 23 -11 0 42 4 65 10 61 6 -3 10 -33
10 -65 l0 -59 48 -4 c26 -2 -155 -4 -403 -5 -263 -1 -456 -6 -465 -12 -13 -8
-16 -75 -20 -467 l-5 -458 -3 462 -2 463 24 15 c17 12 45 15 107 13 l84 -3 5
65 4 65 4 -67 c2 -51 6 -68 17 -68z m227 -91 c-113 -22 -238 -105 -301 -199
-43 -65 -80 -167 -82 -229 -2 -31 -3 -32 -6 -8 -12 78 43 210 124 298 79 85
201 149 278 148 24 -1 22 -3 -13 -10z m-85 -125 c-47 -25 -118 -88 -150 -134
-16 -23 -17 -23 -6 -2 27 57 154 163 194 161 6 0 -11 -11 -38 -25z m163 -109
c0 -34 -4 -45 -15 -45 -23 0 -87 -35 -109 -59 -19 -21 -28 -20 -70 12 -18 13
-18 15 -1 41 23 35 91 74 146 85 24 5 45 9 47 10 1 1 2 -19 2 -44z m-190 -130
c33 -17 33 -18 24 -64 -6 -28 -10 -31 -45 -31 -37 0 -39 1 -39 33 0 42 10 77
22 77 5 0 22 -7 38 -15z m140 7 c0 -4 -5 -13 -12 -20 -18 -18 -28 -15 -28 8 0
13 7 20 20 20 11 0 20 -4 20 -8z m104 -33 c14 -11 26 -27 26 -34 0 -11 8 -13
31 -8 l32 6 -7 -39 c-14 -73 -74 -124 -148 -124 -21 0 -21 1 -8 34 6 17 6 26
-1 26 -5 0 -21 11 -34 25 -73 72 28 178 109 114z m156 -46 c0 -78 -64 -182
-103 -168 -24 10 -21 42 4 56 15 8 24 8 32 0 6 -6 14 -11 17 -11 14 0 30 53
30 100 0 28 5 50 10 50 6 0 10 -12 10 -27z m14 -190 c-8 -34 -30 -53 -61 -53
-27 0 -31 25 -7 58 10 14 25 22 45 22 27 0 29 -2 23 -27z m-149 -14 c-41 -19
-120 -22 -120 -4 0 5 20 8 45 7 25 -2 56 1 70 7 43 17 47 10 5 -10z m-625
-374 c5 -47 -2 -68 -29 -96 -44 -44 -119 -37 -150 14 l-14 22 24 -22 c34 -31
71 -38 108 -19 55 29 68 91 29 142 l-21 29 26 -25 c14 -14 26 -34 27 -45z
m1286 23 c49 -95 -73 -193 -153 -123 l-28 24 41 -20 c48 -23 82 -19 114 16 30
32 30 89 -1 121 -18 19 -19 24 -6 18 10 -3 25 -20 33 -36z"/>
<path d="M188 1584 c-39 -21 -61 -68 -53 -111 3 -19 9 -32 12 -29 3 3 19 -6
35 -19 17 -15 42 -25 60 -25 39 0 88 48 88 87 0 28 -32 91 -54 105 -18 12 -59
8 -88 -8z"/>
</g>
</svg>
